<?xml version="1.0" encoding="utf-8"?><!-- Thanks to http://icomoon.io/ for providing a free pack of icons to use. Please support their cause. --> <!-- Generator: IcoMoon.io --> <!DOCTYPE svg PUBLIC "-//W3C//DTD SVG 1.1//EN" "http://www.w3.org/Graphics/SVG/1.1/DTD/svg11.dtd"> <svg fill="#000000" xmlns:xlink="http://www.w3.org/1999/xlink" xmlns="http://www.w3.org/2000/svg" width="16" height="16" viewBox="0 0 16 16"><g><path d="M 13.114,4.631 C 14.328,5.491 15.323,6.649 16,8 C 14.514,10.968 11.489,13 8,13 C 7.022,13 6.081,12.84 5.2,12.546 L 6.418,11.328 C 6.935,11.442 7.465,11.5 8,11.5 C 9.399,11.5 10.763,11.102 11.944,10.348 C 12.884,9.749 13.681,8.946 14.279,8 C 13.7,7.085 12.935,6.304 12.035,5.711 L 13.114,4.631 ZM 8,10.906 C 7.645,10.906 7.301,10.86 6.973,10.773 L 11.867,5.879 C 11.953,6.207 12,6.551 12,6.906 C 12,9.115 10.209,10.906 8,10.906 ZM 15,0l-0.84,0 L 10.729,3.431C 9.868,3.151, 8.951,3, 8,3C 4.511,3, 1.486,5.032,0,8 c 0.667,1.331, 1.643,2.474, 2.831,3.329L0,14.16L0,15 l 0.84,0 L 15,0.84L 15,0 z M 6.5,4.906c 0.751,0, 1.373,0.551, 1.483,1.271 l-1.711,1.711C 5.551,7.779, 5,7.157, 5,6.406C 5,5.578, 5.672,4.906, 6.5,4.906z M 1.721,8 c 0.598-0.946, 1.395-1.749, 2.335-2.348c 0.061-0.039, 0.123-0.077, 0.185-0.114C 4.085,5.965, 4,6.425, 4,6.906 c0,0.914, 0.307,1.757, 0.823,2.431l-0.915,0.915C 3.032,9.664, 2.287,8.896, 1.721,8z"></path></g></svg>