<?xml version="1.0" encoding="utf-8"?> <!-- Thanks to http://icomoon.io/ for providing a free pack of icons to use. Please support their cause. --><!-- Thanks to http://icomoon.io/ for providing a free pack of icons to use. Please support their cause. --><!-- Generator: IcoMoon.io --> <!DOCTYPE svg PUBLIC "-//W3C//DTD SVG 1.1//EN" "http://www.w3.org/Graphics/SVG/1.1/DTD/svg11.dtd"> <svg fill="#000000" xmlns:xlink="http://www.w3.org/1999/xlink" xmlns="http://www.w3.org/2000/svg" width="16" height="16" viewBox="0 0 16 16"><g><path d="M 8,5C 4.729,5, 1.824,6.571,0,9c 1.824,2.429, 4.729,4, 8,4c 3.271,0, 6.176-1.571, 8-4 C 14.176,6.571, 11.271,5, 8,5z M 7,7c 0.552,0, 1,0.448, 1,1s-0.448,1-1,1s-1-0.448-1-1S 6.448,7, 7,7z M 12.088,11.020c-0.62,0.317-1.276,0.56-1.951,0.725C 9.442,11.914, 8.723,12, 8,12 c-0.723,0-1.442-0.086-2.137-0.255c-0.675-0.164-1.331-0.408-1.951-0.725c-0.985-0.503-1.878-1.194-2.619-2.020 c 0.741-0.826, 1.635-1.517, 2.619-2.020c 0.505-0.258, 1.035-0.468, 1.579-0.626C 5.181,6.827, 5,7.392, 5,8 c0,1.657, 1.343,3, 3,3c 1.657,0, 3-1.343, 3-3c0-0.608-0.181-1.173-0.492-1.646c 0.544,0.158, 1.074,0.367, 1.579,0.626 c 0.985,0.503, 1.878,1.194, 2.619,2.020C 13.966,9.826, 13.072,10.517, 12.088,11.020z M 13.452,3.808 C 11.753,2.94, 9.919,2.5, 8,2.5c-1.919,0-3.753,0.44-5.452,1.308C 1.63,4.277, 0.771,4.869,0,5.559l0,1.706 c 0.865-0.915, 1.886-1.684, 3.003-2.255C 4.56,4.216, 6.241,3.813, 8,3.813s 3.44,0.403, 4.997,1.199 c 1.117,0.571, 2.138,1.339, 3.003,2.255L 16,5.559 C 15.229,4.869, 14.37,4.277, 13.452,3.808z"></path></g></svg>