<?xml version="1.0" encoding="utf-8"?> <!-- Generator: IcoMoon.io --> <!DOCTYPE svg PUBLIC "-//W3C//DTD SVG 1.1//EN" "http://www.w3.org/Graphics/SVG/1.1/DTD/svg11.dtd"> <svg fill="#000000" xmlns:xlink="http://www.w3.org/1999/xlink" xmlns="http://www.w3.org/2000/svg" width="16" height="16" viewBox="0 0 16 16"><g><path d="M 12.5,2L 3.5,2 c-0.828,0-1.5,0.672-1.5,1.5l0,0.5 l 12,0 l0-0.5 C 14,2.672, 13.328,2, 12.5,2zM 9.88,1l 0.221,1.578L 5.899,2.578 l 0.221-1.578L 9.88,1 M 10,0L 6,0 c-0.412,0-0.797,0.334-0.854,0.743l-0.292,2.093 C 4.797,3.244, 5.088,3.578, 5.5,3.578l 5,0 c 0.412,0, 0.703-0.334, 0.646-0.743l-0.292-2.093C 10.797,0.334, 10.412,0, 10,0L 10,0z M 12.75,5L 3.25,5 c-0.55,0-0.959,0.448-0.909,0.996l 0.819,9.008C 3.209,15.552, 3.7,16, 4.25,16l 7.5,0 c 0.55,0, 1.041-0.448, 1.091-0.996l 0.819-9.008C 13.709,5.448, 13.3,5, 12.75,5z M 6,14l-1.5,0 l-0.5-7l 2,0 L 6,14 z M 9,14l-2,0 L 7,7 l 2,0 L 9,14 z M 11.5,14l-1.5,0 L 10,7 l 2,0 L 11.5,14z"></path></g></svg>